<?xml version="1.0" encoding="UTF-8" standalone="no"?>
<!-- Created with Inkscape (http://www.inkscape.org/) -->

<svg
   xmlns:dc="http://purl.org/dc/elements/1.1/"
   xmlns:cc="http://creativecommons.org/ns#"
   xmlns:rdf="http://www.w3.org/1999/02/22-rdf-syntax-ns#"
   xmlns:svg="http://www.w3.org/2000/svg"
   xmlns="http://www.w3.org/2000/svg"
   xmlns:sodipodi="http://sodipodi.sourceforge.net/DTD/sodipodi-0.dtd"
   xmlns:inkscape="http://www.inkscape.org/namespaces/inkscape"
   width="210mm"
   height="297mm"
   viewBox="0 0 210 297"
   version="1.1"
   id="svg887"
   inkscape:version="0.92.3 (2405546, 2018-03-11)"
   sodipodi:docname="colorSharkSVG.svg">
  <defs
     id="defs881" />
  <sodipodi:namedview
     id="base"
     pagecolor="#ffffff"
     bordercolor="#666666"
     borderopacity="1.0"
     inkscape:pageopacity="0.0"
     inkscape:pageshadow="2"
     inkscape:zoom="0.35"
     inkscape:cx="-170"
     inkscape:cy="560"
     inkscape:document-units="mm"
     inkscape:current-layer="layer1"
     showgrid="false"
     inkscape:window-width="1920"
     inkscape:window-height="1001"
     inkscape:window-x="-9"
     inkscape:window-y="-9"
     inkscape:window-maximized="1" />
  <metadata
     id="metadata884">
    <rdf:RDF>
      <cc:Work
         rdf:about="">
        <dc:format>image/svg+xml</dc:format>
        <dc:type
           rdf:resource="http://purl.org/dc/dcmitype/StillImage" />
        <dc:title></dc:title>
      </cc:Work>
    </rdf:RDF>
  </metadata>
  <g
     inkscape:label="Layer 1"
     inkscape:groupmode="layer"
     id="layer1">
    <g
       id="g1469"
       transform="matrix(0.74012856,0,0,0.74012856,33.787622,-11.752613)">
      <path
         transform="matrix(0.0235132,0.0241945,-0.02570322,0.02213303,193.91869,112.31953)"
         inkscape:transform-center-y="0.091752179"
         inkscape:transform-center-x="-0.63630132"
         d="m -164.63802,118.9985 c -24.7572,9.46217 -151.13471,-93.180511 -146.9506,-119.35196054 4.18412,-26.17144946 156.26404,-84.29624346 176.83713,-67.58697046 20.57308,16.709274 -5.12934,177.476751 -29.88653,186.938931 z"
         inkscape:randomized="0"
         inkscape:rounded="0.14"
         inkscape:flatsided="true"
         sodipodi:arg2="2.2529268"
         sodipodi:arg1="1.2057292"
         sodipodi:r2="54.649918"
         sodipodi:r1="109.29984"
         sodipodi:cy="16.901535"
         sodipodi:cx="-203.65938"
         sodipodi:sides="3"
         id="path4932"
         style="opacity:1;fill:#cccccc;fill-opacity:1;stroke:#616161;stroke-width:0;stroke-linecap:round;stroke-miterlimit:4;stroke-dasharray:none;stroke-dashoffset:0;stroke-opacity:1"
         sodipodi:type="star" />
      <path
         transform="matrix(0.0235132,0.0241945,-0.02570322,0.02213303,199.91434,114.98568)"
         inkscape:transform-center-y="0.091752163"
         inkscape:transform-center-x="-0.63630159"
         d="m -164.63802,118.9985 c -24.7572,9.46217 -151.13471,-93.180511 -146.9506,-119.35196054 4.18412,-26.17144946 156.26404,-84.29624346 176.83713,-67.58697046 20.57308,16.709274 -5.12934,177.476751 -29.88653,186.938931 z"
         inkscape:randomized="0"
         inkscape:rounded="0.14"
         inkscape:flatsided="true"
         sodipodi:arg2="2.2529268"
         sodipodi:arg1="1.2057292"
         sodipodi:r2="54.649918"
         sodipodi:r1="109.29984"
         sodipodi:cy="16.901535"
         sodipodi:cx="-203.65938"
         sodipodi:sides="3"
         id="path4932-2"
         style="opacity:1;fill:#cccccc;fill-opacity:1;stroke:#616161;stroke-width:0;stroke-linecap:round;stroke-miterlimit:4;stroke-dasharray:none;stroke-dashoffset:0;stroke-opacity:1"
         sodipodi:type="star" />
      <path
         transform="matrix(0.0235132,0.0241945,-0.02570322,0.02213303,188.19049,109.48031)"
         inkscape:transform-center-y="0.091752126"
         inkscape:transform-center-x="-0.63630116"
         d="m -164.63802,118.9985 c -24.7572,9.46217 -151.13471,-93.180511 -146.9506,-119.35196054 4.18412,-26.17144946 156.26404,-84.29624346 176.83713,-67.58697046 20.57308,16.709274 -5.12934,177.476751 -29.88653,186.938931 z"
         inkscape:randomized="0"
         inkscape:rounded="0.14"
         inkscape:flatsided="true"
         sodipodi:arg2="2.2529268"
         sodipodi:arg1="1.2057292"
         sodipodi:r2="54.649918"
         sodipodi:r1="109.29984"
         sodipodi:cy="16.901535"
         sodipodi:cx="-203.65938"
         sodipodi:sides="3"
         id="path4932-1"
         style="opacity:1;fill:#cccccc;fill-opacity:1;stroke:#616161;stroke-width:0;stroke-linecap:round;stroke-miterlimit:4;stroke-dasharray:none;stroke-dashoffset:0;stroke-opacity:1"
         sodipodi:type="star" />
      <path
         inkscape:connector-curvature="0"
         id="path4520"
         d="m -14.85128,72.607823 c -0.84931,0.01845 -1.54289,0.197509 -2.05224,0.557018 -0.51551,0.363842 -0.99398,1.020888 -1.43612,1.927549 4.32473,6.346731 11.9700805,27.24065 11.9700805,35.22419 0,7.75915 -7.2207805,27.70987 -11.5969405,34.65192 0.33518,0.55514 0.68922,0.97502 1.06298,1.23881 7.2441805,5.11297 51.74434,-26.29531 51.74434,-36.52124 0,-9.50691 -38.4623095,-37.322245 -49.6921,-37.078247 z"
         style="opacity:1;fill:#999999;fill-opacity:1;stroke:#616161;stroke-width:0;stroke-linecap:round;stroke-miterlimit:4;stroke-dasharray:none;stroke-dashoffset:0;stroke-opacity:1" />
      <path
         inkscape:connector-curvature="0"
         id="path4520-7"
         d="m 100.90024,42.045305 c -1.03827,0.01845 -1.88616,0.197516 -2.50884,0.557017 -0.6302,0.363849 -1.21512,1.020895 -1.75562,1.927549 5.2869,6.346731 14.63324,27.240649 14.63324,35.224192 0,0.02643 -0.005,0.05996 -0.005,0.08665 h 50.27478 c 0.0516,-0.244756 0.10988,-0.492278 0.10988,-0.71716 0,-9.506909 -47.01962,-37.322244 -60.74788,-37.078252 z"
         style="opacity:1;fill:#999999;fill-opacity:1;stroke:#616161;stroke-width:0;stroke-linecap:round;stroke-miterlimit:4;stroke-dasharray:none;stroke-dashoffset:0;stroke-opacity:1" />
      <path
         inkscape:connector-curvature="0"
         id="path4697"
         d="m 141.29926,99.484101 c -0.67027,0.01877 -1.24037,0.0672 -1.69289,0.148699 -4.16731,0.75074 -6.74422,5.75314 -7.39236,10.98438 -1.25693,0.0251 -2.51082,0.0495 -3.78231,0.0773 -3.74807,0.0819 -7.55704,0.17516 -11.41384,0.27938 -3.85681,0.10423 -7.76132,0.21914 -11.70015,0.34454 -3.93884,0.12539 -7.91223,0.26123 -11.90639,0.40658 -3.99415,0.14536 -8.0091,0.30035 -12.03186,0.46447 -4.02277,0.16412 -8.0533,0.33758 -12.07796,0.51924 -4.02465,0.18167 -8.04345,0.37149 -12.04331,0.5695 -3.99985,0.19802 -7.98058,0.40417 -11.92891,0.61733 -3.94833,0.21316 -7.86436,0.43355 -11.73446,0.66066 -2.11421,0.12406 -4.17561,0.25472 -6.2603,0.38266 38.72718,7.834 115.71331,17.71627 131.51514,15.32891 2.20511,-0.33315 4.16399,-1.04942 5.8811,-2.06724 5.35428,-1.83687 12.27033,-4.93399 19.14102,-8.37606 a 7.4441948,2.0527404 28.866913 0 1 -0.54939,-0.25338 7.4441948,2.0527404 28.866913 0 1 -0.65891,-0.32721 7.4441948,2.0527404 28.866913 0 1 -0.65616,-0.34905 7.4441948,2.0527404 28.866913 0 1 -0.58233,-0.32964 7.4441948,2.0527404 28.866913 0 1 -0.63224,-0.38058 7.4441948,2.0527404 28.866913 0 1 -0.61038,-0.39133 7.4441948,2.0527404 28.866913 0 1 -0.58233,-0.39827 7.4441948,2.0527404 28.866913 0 1 -0.5487,-0.40173 7.4441948,2.0527404 28.866913 0 1 -0.50954,-0.40035 7.4441948,2.0527404 28.866913 0 1 -0.46515,-0.39584 c -0.40058,-0.18976 -0.76271,-0.40622 -1.08803,-0.64506 -0.32532,-0.23884 -0.61363,-0.50014 -0.86622,-0.77989 -0.25257,-0.27975 -0.46962,-0.57796 -0.65198,-0.89047 -0.18237,-0.3125 -0.33038,-0.63933 -0.44506,-0.97643 -0.11468,-0.33709 -0.19589,-0.68425 -0.2454,-1.03777 -0.0495,-0.35353 -0.0672,-0.71343 -0.0541,-1.07522 0.005,-0.14381 0.0368,-0.28802 0.0516,-0.43223 -1.24567,-0.0149 -2.44874,-0.0348 -3.73308,-0.0451 -3.47981,-0.29259 -6.43078,-0.63105 -8.22599,-0.99966 -6.4411,-1.32253 -18.49081,-7.16694 -21.5192,-9.831168 z"
         style="opacity:1;fill:#f2f2f2;fill-opacity:1;stroke:#616161;stroke-width:0;stroke-linecap:round;stroke-miterlimit:4;stroke-dasharray:none;stroke-dashoffset:0;stroke-opacity:1" />
      <path
         inkscape:connector-curvature="0"
         id="path4646"
         d="M 150.91068,65.544833 C 117.71142,65.436834 4.7324705,96.167956 4.9744305,106.4879 c 0.067,2.8585 8.9286095,7.20402 22.3600895,11.97952 2.08469,-0.22487 4.14609,-0.45473 6.2603,-0.67279 3.8701,-0.39915 7.78613,-0.78652 11.73446,-1.16117 3.94833,-0.37466 7.92906,-0.73653 11.92891,-1.08458 3.99986,-0.34804 8.01866,-0.68207 12.04331,-1.00138 4.02466,-0.31931 8.05519,-0.62385 12.07796,-0.91231 4.02276,-0.28845 8.03771,-0.56114 12.03186,-0.81663 3.99416,-0.25549 7.96755,-0.49399 11.90639,-0.71438 3.93883,-0.2204 7.84334,-0.4227 11.70015,-0.6059 3.8568,-0.18319 7.66577,-0.34694 11.41384,-0.49081 3.74807,-0.14386 7.43518,-0.26777 11.04781,-0.37019 3.61262,-0.10242 7.15089,-0.18344 10.60136,-0.24229 3.45047,-0.0588 6.81325,-0.0953 10.07485,-0.10848 3.2616,-0.0132 6.42189,-0.003 9.46792,0.0315 1.77899,0.0202 3.43036,0.0669 5.12857,0.10398 0.0154,-0.0975 0.0153,-0.19522 0.035,-0.29255 0.0732,-0.36188 0.17591,-0.72174 0.30676,-1.07556 0.13085,-0.35381 0.28998,-0.70158 0.4759,-1.03917 0.18593,-0.33758 0.39862,-0.66496 0.63709,-0.97815 0.23847,-0.3132 0.50249,-0.61226 0.79099,-0.8929 0.28851,-0.28064 0.6016,-0.54275 0.9376,-0.78267 0.336,-0.23991 0.69492,-0.45748 1.07591,-0.64852 0.38099,-0.19104 0.78383,-0.35544 1.20729,-0.48943 0.42344,-0.13399 0.86763,-0.23763 1.33102,-0.30641 0.46337,-0.0688 0.94598,-0.10303 1.44678,-0.0984 0.13502,0.001 0.27141,0.005 0.40902,0.0121 0.45438,0.023 1.02163,0.0831 1.6856,0.17539 0.3444,0.24877 0.82388,0.5479 1.41109,0.88388 0.58723,0.33598 1.28233,0.70887 2.05857,1.10606 1.55252,0.7944 3.42933,1.68523 5.41525,2.56846 1.9859,0.88322 4.0807,1.75901 6.06966,2.52304 0.39558,0.15196 0.75904,0.27502 1.14454,0.41733 13.83763,-6.18233 25.18766,-12.81528 25.13443,-16.306034 -0.1151,-7.546944 -53.76358,-29.032338 -70.61337,-29.332693 -1.32717,-0.209743 -2.9359,-0.314904 -4.80068,-0.320966 z"
         style="opacity:1;fill:#999999;fill-opacity:1;stroke:#616161;stroke-width:0;stroke-linecap:round;stroke-miterlimit:4;stroke-dasharray:none;stroke-dashoffset:0;stroke-opacity:1" />
      <path
         inkscape:connector-curvature="0"
         id="path4571"
         d="M 131.95851,110.3168 H 87.64107 c -0.0526,7.81515 -7.79246,27.64683 -12.49228,34.56527 0.36121,0.55513 0.74273,0.97501 1.14548,1.23881 7.63486,5.00052 53.64313,-24.91916 55.66424,-35.80408 z"
         style="opacity:1;fill:#999999;fill-opacity:1;stroke:#616161;stroke-width:0;stroke-linecap:round;stroke-miterlimit:4;stroke-dasharray:none;stroke-dashoffset:0;stroke-opacity:1" />
      <ellipse
         ry="6.1638885"
         rx="4.4367323"
         cy="83.722534"
         cx="178.77129"
         id="path4714"
         style="opacity:1;fill:#ffffff;fill-opacity:1;stroke:#616161;stroke-width:0;stroke-linecap:round;stroke-miterlimit:4;stroke-dasharray:none;stroke-dashoffset:0;stroke-opacity:1" />
      <ellipse
         ry="5.930408"
         rx="3.454313"
         cy="83.67585"
         cx="179.75369"
         id="path4714-4"
         style="opacity:1;fill:#000000;fill-opacity:1;stroke:#616161;stroke-width:0;stroke-linecap:round;stroke-miterlimit:4;stroke-dasharray:none;stroke-dashoffset:0;stroke-opacity:1" />
      <ellipse
         ry="2.3464804"
         rx="2.3175571"
         cy="81.242805"
         cx="177.80199"
         id="path4714-48"
         style="opacity:1;fill:#ffffff;fill-opacity:1;stroke:#616161;stroke-width:0;stroke-linecap:round;stroke-miterlimit:4;stroke-dasharray:none;stroke-dashoffset:0;stroke-opacity:1" />
    </g>
  </g>
</svg>
